<svg width="601" height="511" viewBox="0 0 601 511" fill="none" xmlns="http://www.w3.org/2000/svg">
<path d="M0.570801 514.728C0.570801 514.728 25.485 532.723 53.5976 535.799C81.7103 538.798 145.09 532.492 145.09 532.492C145.09 532.492 75.3976 486.659 0.570801 514.728Z" fill="#004A20"/>
<path d="M168.404 534.261C168.909 536.414 126.656 521.188 98.0386 474.278C98.0386 474.278 159.482 492.811 168.404 534.261Z" fill="#004A20"/>
<path d="M152.413 466.511C152.413 466.511 159.651 525.802 185.323 536.184C185.323 536.184 185.828 487.736 152.413 466.511Z" fill="#006D4E"/>
<path d="M205.439 541.105C205.439 541.105 181.451 510.499 178.168 467.896C178.168 467.896 206.112 487.198 211.331 542.028L205.439 541.105Z" fill="#004A20"/>
<path d="M226.734 543.874C226.734 543.874 205.271 499.579 217.307 466.204C217.307 466.204 238.097 507.192 234.057 545.181L226.734 543.874Z" fill="#006D4E"/>
<path d="M245.251 547.18L255.183 548.18C255.183 548.18 286.915 519.804 274.627 476.508C274.627 476.508 247.777 516.112 245.251 547.18Z" fill="#004A20"/>
<path d="M136.925 522.034C136.925 522.034 211.247 536.107 284.895 513.575C358.628 491.043 491.7 549.411 554.996 610.547C618.207 671.683 623.173 766.348 601.626 765.503C580.162 764.58 542.034 760.965 515.436 741.74C488.754 722.515 467.038 701.444 461.231 681.68C461.231 681.68 505.756 645.229 493.383 645.383C480.926 645.537 465.355 675.759 453.992 664.993C442.545 654.304 389.518 621.005 369.486 616.93C369.486 616.93 409.719 583.785 396.841 585.016C383.963 586.169 359.385 609.163 355.261 606.317C351.137 603.472 297.521 586.169 297.521 586.169C297.521 586.169 328.832 554.563 319.826 556.101C310.904 557.639 279.929 576.787 279.929 576.787C279.929 576.787 169.162 549.718 136.925 522.034Z" fill="#008A45"/>
<path opacity="0.4" d="M602.299 765.426C623.089 764.349 617.534 670.991 554.996 610.547C491.7 549.411 358.628 491.043 284.895 513.575C211.247 536.107 136.925 522.034 136.925 522.034C137.15 522.239 137.402 522.47 137.683 522.726C148.372 526.494 202.073 545.258 251.733 555.178C266.631 558.177 281.949 562.099 297.268 566.636C305.938 561.792 315.533 556.87 319.826 556.101C324.455 555.332 318.479 563.253 311.577 571.174C333.377 578.325 354.756 586.938 374.031 596.32C382.027 591.014 390.697 585.554 396.841 585.016C403.827 584.324 395.326 593.706 385.983 602.395C394.484 606.856 402.396 611.47 409.719 616.238C449.194 641.923 458.285 633.771 473.94 658.687C480.59 652.535 487.323 645.46 493.383 645.383C500.285 645.229 489.512 656.611 478.57 666.608C492.458 692.908 491.784 713.671 537.488 745.355C555.585 757.966 579.489 763.503 602.299 765.426Z" fill="#006F18"/>
<path d="M523.937 590.476C443.387 530.416 352.989 497.964 284.895 513.575C219.243 528.647 153.423 528.032 137.346 522.649C145.511 525.725 184.06 539.875 210.995 541.721C241.296 543.72 260.15 547.18 260.15 547.18L293.481 528.801L272.438 552.948C272.438 552.948 318.563 560.254 346.003 572.942C347.798 573.763 349.538 574.583 351.221 575.403C361.827 567.636 390.697 548.257 415.947 547.719C415.947 547.719 377.987 562.561 359.049 579.556C377.566 589.861 388.761 600.011 411.823 611.47C439.768 625.389 439.768 625.389 439.768 625.389C439.768 625.389 488.754 601.319 484.293 608.394C479.916 615.546 459.632 631.233 459.632 631.233C459.632 631.233 474.025 628.004 486.566 649.613C494.562 663.455 495.74 681.527 503.231 698.599C514.678 692.985 540.771 683.065 568.126 691.37C568.126 691.37 530.166 698.291 511.396 712.518C514.763 716.978 518.971 721.284 524.19 725.283C553.565 747.662 610.295 768.886 616.692 757.582C623.089 746.354 604.487 650.536 523.937 590.476Z" fill="#68B760"/>
<g opacity="0.1">
<path d="M616.692 757.582C623.089 746.354 604.488 650.536 523.937 590.476C443.387 530.416 352.989 497.964 284.896 513.575C259.14 519.496 233.3 523.034 210.49 524.725C216.718 527.648 222.358 531.877 229.007 533.954C243.484 538.414 258.803 531.954 273.028 527.109C287.252 522.188 305.181 519.419 316.123 529.032C318.984 531.57 321.089 534.799 323.782 537.414C332.451 545.873 346.339 547.873 358.965 546.642C371.506 545.489 383.711 541.644 396.252 540.567C406.942 539.644 420.661 542.874 422.345 552.564C423.776 560.561 415.695 568.636 418.641 576.326C419.651 578.941 421.924 581.017 424.28 582.786C449.363 600.934 492.542 585.247 514.342 606.625C516.53 608.855 518.382 611.393 519.055 614.238C519.897 618.006 518.635 621.928 517.625 625.696C515.268 634.771 514.931 644.999 520.823 652.612C528.146 661.994 542.118 663.993 554.154 667.377C566.19 670.761 579.405 679.22 577.722 690.601C576.207 700.367 564.423 706.366 561.561 715.825C559.457 722.899 562.908 730.59 568.379 735.896C573.934 741.202 581.257 744.586 588.495 747.738C597.417 751.584 607.013 755.275 616.692 757.659C616.692 757.659 616.692 757.633 616.692 757.582Z" fill="#069456"/>
</g>
<path d="M135.747 522.034C135.747 522.034 204.935 527.571 293.565 511.345C388.256 493.888 527.136 563.714 577.132 635.694C626.708 706.904 628.981 803.722 623.173 810.259C617.365 816.719 606.171 808.567 606.171 808.567C606.171 808.567 632.179 709.134 547.505 617.699C547.505 617.699 425.038 493.811 276.142 520.496C173.708 538.875 135.747 522.034 135.747 522.034Z" fill="#A9D97C"/>
<path d="M611.557 381.843C654.4 368.616 699.851 330.781 699.851 330.781C662.732 332.703 619.385 360.849 604.908 373C631.926 339.317 657.177 282.256 657.177 282.256C625.361 294.56 604.992 343.393 598.09 363.771C604.824 323.783 581.256 253.188 581.256 253.188C556.005 286.409 583.445 364.387 583.445 364.387L583.024 366.155C565.937 299.636 496.413 264.8 496.413 264.8C499.696 313.786 579.32 372.384 579.32 372.384L576.038 374.845C534.626 322.399 441.535 330.396 441.535 330.396C478.233 366.463 573.092 380.536 573.092 380.536L572.671 381.997C572.671 381.997 540.518 379.998 517.287 381.382C493.972 382.843 456.517 403.991 456.517 403.991C456.517 403.991 487.407 414.372 518.718 414.526C550.114 414.68 581.172 398.377 581.172 398.377C581.172 398.377 539.424 423.139 525.62 438.673C511.816 454.207 507.944 470.356 507.944 470.356C507.944 470.356 535.131 473.663 556.679 460.974C578.142 448.286 594.387 397.762 594.387 397.762C594.387 397.762 592.198 422.755 595.902 453.976C599.689 485.198 618.964 497.272 618.964 497.272C644.888 460.436 603.056 396.685 603.056 396.685C679.903 458.283 694.464 533.338 694.801 543.566C694.969 549.411 704.901 541.72 704.901 541.72C711.803 483.353 605.076 394.301 605.076 394.301C641.522 403.068 712.729 398.223 712.729 398.223C673.506 372.231 611.557 381.843 611.557 381.843Z" fill="#80AE5E"/>
<path d="M331.694 423.447C331.694 423.447 317.721 436.52 294.659 428.599C271.597 420.678 273.027 421.678 262.17 411.296L248.366 401.299C248.366 401.299 250.302 400.222 269.913 396.839C289.525 393.378 302.234 390.61 312.335 395.993C322.435 401.299 337.67 418.371 338.596 420.909C339.606 423.37 331.694 423.447 331.694 423.447Z" fill="#B4DC82"/>
<path d="M372.432 429.137C372.432 429.137 361.911 425.446 349.622 415.756C337.333 405.99 331.694 396.3 327.906 388.149C324.119 380.074 320.163 368.693 320.163 368.693C320.163 368.693 351.305 378.767 361.827 388.533C372.348 398.3 376.472 419.525 372.432 429.137Z" fill="#B4DC82"/>
<path d="M404.669 445.594C404.669 445.594 390.024 437.058 385.815 425.754C381.522 414.526 378.492 396.839 379.502 388.303C380.428 379.767 381.438 374.461 380.512 368.77C380.512 368.77 386.657 372.307 392.969 377.998C399.366 383.689 405.679 387.688 411.403 402.914C417.126 418.141 415.359 440.596 404.669 445.594Z" fill="#B4DC82"/>
<path d="M430.256 477.354C430.256 477.354 419.651 460.59 419.061 448.439C418.556 436.366 419.566 423.6 425.711 414.065C431.855 404.452 440.104 394.07 440.104 394.07C440.104 394.07 444.396 406.451 447.342 423.908C450.204 441.288 439.43 470.587 430.256 477.354Z" fill="#B4DC82"/>
<path d="M449.531 514.267C449.531 514.267 443.05 503.731 442.461 491.12C441.871 478.508 447.847 465.665 460.389 453.9C472.93 442.057 476.886 427.215 476.886 427.215C476.886 427.215 491.7 459.744 481.347 480.815C470.994 501.963 453.066 511.268 449.531 514.267Z" fill="#B4DC82"/>
<path d="M462.409 517.651C466.702 508.961 474.445 501.963 484.546 496.503C494.562 491.043 499.949 492.811 505.925 485.813C511.901 478.739 516.867 474.125 516.867 474.125C516.867 474.125 514.005 496.041 507.524 512.421C501.043 528.801 498.939 535.338 488.67 541.874C478.401 548.488 462.072 554.563 462.072 554.563C462.072 554.563 458.201 526.417 462.409 517.651Z" fill="#B4DC82"/>
<path d="M452.982 547.949C452.982 547.949 444.902 548.795 432.024 547.334C419.23 545.873 414.264 547.411 402.901 540.259C391.622 533.107 388.592 526.34 383.794 524.11C378.997 521.88 370.748 517.343 370.748 517.343C370.748 517.343 376.135 511.421 395.662 510.96C415.274 510.575 429.246 507.73 438 518.112C446.753 528.417 456.854 545.873 456.854 545.873L452.982 547.949Z" fill="#B4DC82"/>
<path d="M429.751 487.121C429.751 487.121 419.567 493.888 410.056 495.426C400.46 497.041 393.895 497.041 382.364 493.657C370.917 490.274 364.604 487.659 362.584 487.582C360.48 487.505 363.51 483.968 375.967 477.816C388.508 471.587 421.25 462.128 429.751 487.121Z" fill="#B4DC82"/>
<path d="M407.11 451.285C407.11 451.285 391.538 461.743 381.69 463.896C371.758 465.973 359.217 470.818 350.716 467.126C342.215 463.512 327.569 460.436 327.569 460.436C327.569 460.436 336.912 460.128 344.74 454.13C352.652 448.132 360.059 442.518 372.6 441.749C385.226 440.98 407.11 451.285 407.11 451.285Z" fill="#B4DC82"/>
<path d="M357.955 429.522C357.955 429.522 333.461 451.285 314.186 454.745C294.996 458.283 279.003 459.052 279.003 459.052C279.003 459.052 289.356 457.668 307.453 445.286C325.549 432.905 348.443 429.599 357.955 429.522Z" fill="#B4DC82"/>
<path d="M330.094 419.755C330.094 419.755 363.846 430.906 377.229 438.135C390.528 445.286 396.083 444.671 404.163 452.977C412.243 461.282 416.452 466.819 421.754 474.817C426.973 482.814 438.336 500.194 442.46 506.423C446.5 512.652 449.699 517.497 451.214 533.031C452.813 548.488 462.998 567.098 462.661 575.711C462.324 584.324 466.028 601.088 465.354 608.086C464.681 615.084 464.176 621.467 467.038 625.85C469.984 630.31 479.074 635.078 477.98 631.387C476.886 627.773 470.573 613.085 470.741 605.164C470.825 597.243 466.617 577.787 466.533 570.558C466.449 563.33 466.785 560.792 464.428 551.179C462.156 541.567 455.927 521.957 453.991 517.035C452.056 512.037 447.51 503.039 441.955 494.58C436.4 486.121 428.572 474.124 423.69 464.666C418.809 455.207 409.297 447.747 403.406 443.748C397.429 439.75 374.367 428.753 368.643 427.061C362.92 425.369 330.094 419.755 330.094 419.755Z" fill="#9DC563"/>
<path d="M256.615 401.915C264.443 402.684 272.27 403.837 280.014 405.144C283.886 405.837 287.757 406.605 291.629 407.375C295.501 408.144 299.289 408.913 303.16 409.835C306.948 410.758 310.736 411.681 314.608 412.681L320.247 414.296C321.173 414.526 322.099 414.834 323.025 415.065L325.886 415.987C329.59 417.141 333.293 418.525 336.913 419.909L342.299 422.14C344.039 423.011 345.778 423.908 347.518 424.831C340.279 421.986 332.704 419.909 325.213 417.91C317.638 415.911 310.062 414.039 302.487 412.296C294.828 410.527 287.168 408.836 279.593 407.144C271.934 405.452 264.274 403.76 256.615 401.915Z" fill="#9DC563"/>
<path d="M291.124 456.053C296.595 453.515 302.234 451.439 307.958 449.362C310.82 448.363 313.513 447.363 316.206 446.132C318.9 444.902 321.593 443.595 324.203 442.21L332.199 438.135C334.892 436.75 337.501 435.443 340.279 434.213C343.057 432.982 345.918 431.829 348.864 430.906C351.81 430.06 354.84 429.368 357.955 429.522C354.925 429.906 352.063 430.983 349.369 432.06C346.592 433.213 343.982 434.597 341.373 435.981C338.764 437.366 336.071 438.75 333.546 440.211C330.908 441.647 328.271 443.056 325.634 444.441C322.94 445.825 320.191 447.132 317.385 448.363C314.523 449.516 311.577 450.516 308.631 451.285C302.824 452.977 297.016 454.515 291.124 456.053Z" fill="#9DC563"/>
<path d="M323.613 371.846C323.95 372.615 324.455 373.23 324.96 373.845C325.465 374.461 325.97 375.076 326.475 375.691C327.597 376.819 328.748 377.947 329.926 379.075C332.283 381.305 334.724 383.458 337.165 385.534L344.656 391.84C347.181 393.917 349.622 396.07 352.063 398.223C354.504 400.453 356.86 402.76 359.049 405.221C360.143 406.451 361.237 407.605 362.163 408.912C362.668 409.604 363.257 410.22 363.678 410.835L365.025 412.911C368.644 418.217 371.085 424.446 371.422 430.675C369.907 424.6 367.045 418.986 363.173 413.988C359.385 408.989 354.924 404.375 350.127 400.069C345.329 395.685 340.363 391.533 335.65 386.995C333.293 384.74 331.048 382.381 328.916 379.921C327.822 378.69 326.812 377.383 325.886 376.076C324.96 374.768 324.034 373.384 323.613 371.846Z" fill="#9DC563"/>
<path d="M407.11 451.285C401.471 449.593 395.579 448.747 389.771 448.824C386.825 448.901 383.963 449.132 381.102 449.67C378.324 450.208 375.546 450.977 372.769 451.9C367.298 453.746 361.995 456.206 356.44 458.283C353.662 459.359 350.885 460.359 347.939 460.974C344.993 461.59 341.794 461.897 338.933 461.205C341.879 461.359 344.74 460.667 347.518 459.744C350.296 458.898 352.905 457.668 355.514 456.437C358.151 455.207 360.817 454.002 363.51 452.823C366.204 451.669 368.981 450.516 371.843 449.516C374.705 448.593 377.567 447.747 380.681 447.286C383.711 446.825 386.741 446.671 389.771 446.825C395.915 447.132 401.891 448.593 407.11 451.285Z" fill="#9DC563"/>
<path d="M381.438 376.614C382.28 376.306 383.374 376.614 384.216 376.998C384.384 377.101 384.58 377.229 384.805 377.383C384.973 377.537 385.17 377.665 385.394 377.767C385.731 378.075 386.067 378.383 386.404 378.767C387.667 380.074 388.592 381.612 389.434 383.15C391.033 386.38 392.212 389.687 393.053 392.994C394.905 399.684 395.915 406.528 397.094 413.219C398.188 419.986 399.45 426.676 401.386 433.213C403.322 439.75 406.016 446.055 409.467 452.208C405.006 446.594 401.639 440.365 399.282 433.751C398.104 430.521 397.178 427.138 396.336 423.754C395.55 420.422 394.877 417.064 394.316 413.68L392.717 403.529C392.212 400.146 391.538 396.762 390.949 393.455L390.36 390.994L389.771 388.533C389.322 386.893 388.789 385.278 388.172 383.689C387.498 382.074 386.825 380.536 385.731 379.152C385.562 378.844 385.226 378.536 384.973 378.152C384.636 377.921 384.3 377.614 383.963 377.383C383.206 376.845 382.364 376.46 381.438 376.614Z" fill="#9DC563"/>
<path d="M367.55 485.583C372.516 483.43 377.65 481.968 382.953 480.738C388.171 479.508 393.558 478.662 399.029 478.2C404.416 477.816 409.971 477.816 415.358 478.585C420.829 479.277 426.132 480.738 430.761 483.353C425.711 481.738 420.408 480.892 415.106 480.507C412.468 480.354 409.831 480.302 407.194 480.354C404.556 480.405 401.919 480.533 399.282 480.738C396.588 480.969 393.979 481.199 391.286 481.584C388.676 481.892 386.067 482.276 383.374 482.661C378.099 483.532 372.824 484.506 367.55 485.583Z" fill="#9DC563"/>
<path d="M429.583 480.584C428.826 479.046 428.321 477.354 427.731 475.663C427.226 474.048 426.721 472.356 426.301 470.664C425.375 467.28 424.701 463.82 424.196 460.359C423.776 456.822 423.523 453.361 423.944 449.747C424.196 447.901 424.533 446.209 425.038 444.518C425.487 442.775 426.02 441.057 426.637 439.365C427.816 436.059 429.331 432.829 430.762 429.676C431.435 428.061 432.108 426.446 432.613 424.831C432.894 424.062 433.118 423.267 433.287 422.447L433.96 419.909C435.643 413.142 437.411 406.452 439.431 399.761C438.505 406.605 437.327 413.45 436.064 420.294L435.643 422.908C435.419 423.78 435.195 424.626 434.97 425.446C434.465 427.215 433.876 428.907 433.202 430.522C431.856 433.828 430.425 436.981 429.331 440.211C428.713 441.8 428.18 443.441 427.731 445.133C427.226 446.748 426.806 448.44 426.553 450.054C426.048 453.284 426.216 456.745 426.385 460.129C426.665 463.563 427.086 466.998 427.647 470.433C427.872 472.125 428.152 473.817 428.489 475.509C428.657 476.38 428.826 477.226 428.994 478.046C429.162 478.892 429.331 479.738 429.583 480.584Z" fill="#9DC563"/>
<path d="M459.884 554.332C460.053 553.871 460.053 553.409 460.053 552.871V551.41C460.109 550.436 460.165 549.462 460.221 548.488C460.389 546.488 460.698 544.514 461.147 542.566C462.073 538.721 463.672 534.876 465.86 531.416C466.365 530.544 466.926 529.698 467.544 528.878C467.88 528.417 468.189 527.981 468.47 527.571L469.48 526.417C470.153 525.571 470.826 524.802 471.584 524.033C472.341 523.341 473.015 522.572 473.856 521.88C477.055 519.035 480.674 516.804 484.125 514.497C487.492 512.19 490.774 509.73 493.636 506.961C496.498 504.193 499.023 501.04 501.464 497.81C506.178 491.427 510.554 484.66 514.763 477.816C511.564 485.121 507.777 492.196 503.232 498.963C501.043 502.347 498.518 505.577 495.572 508.576C492.626 511.575 489.259 514.19 485.724 516.574C482.273 518.881 478.738 521.034 475.708 523.649C472.594 526.186 470.069 529.262 467.712 532.415C465.439 535.645 463.756 539.183 462.494 542.874C461.904 544.72 461.399 546.642 460.978 548.565C460.81 549.539 460.642 550.513 460.473 551.487L460.221 552.948C460.137 553.409 460.137 553.948 459.884 554.332Z" fill="#9DC563"/>
<path d="M476.549 433.674C477.223 434.366 477.391 435.366 477.559 436.212C477.672 437.135 477.7 438.058 477.644 438.981C477.559 440.826 477.307 442.672 476.886 444.44C476.128 448.055 475.118 451.592 473.856 455.053C472.593 458.59 470.742 461.897 468.553 465.05C466.365 468.203 463.84 471.048 461.146 473.74C458.453 476.508 455.675 479.046 453.15 481.737C450.625 484.429 448.352 487.274 448.352 490.658C448.268 492.427 448.268 494.195 448.268 496.041C448.268 497.81 448.437 499.578 448.521 501.424C448.773 505.038 449.194 508.576 449.699 512.19C448.605 508.73 447.848 505.115 447.174 501.578C446.585 497.964 446.164 494.272 446.164 490.581C446.164 489.735 446.248 488.659 446.501 487.659C446.781 486.685 447.174 485.762 447.679 484.89C448.605 483.199 449.868 481.661 451.13 480.199C453.655 477.354 456.433 474.739 459.042 472.048C464.345 466.742 468.974 460.974 471.836 454.361C473.182 451.054 474.529 447.593 475.623 444.133C476.128 442.441 476.549 440.672 476.886 438.904C476.998 438.032 477.082 437.161 477.139 436.289C477.054 435.366 477.054 434.443 476.549 433.674Z" fill="#9DC563"/>
<path d="M385.646 102.923C385.646 102.923 397.261 137.528 423.691 158.83C450.12 180.055 519.896 214.506 519.896 214.506C519.896 214.506 483.788 122.302 385.646 102.923Z" fill="#004A20"/>
<path d="M542.454 231.348C541.276 233.886 509.712 190.898 516.53 124.148C516.53 124.148 565.18 182.977 542.454 231.348Z" fill="#004A20"/>
<path d="M525.957 222.889C525.957 222.889 491.448 190.206 417.126 217.506C417.126 217.506 498.013 250.65 525.957 222.889Z" fill="#006D4E"/>
<path d="M447.09 256.418C447.09 256.418 534.458 260.878 549.188 242.114C549.188 242.114 484.629 226.503 447.09 256.418Z" fill="#004A20"/>
<path d="M578.059 151.294C578.059 151.294 539.93 216.967 558.279 244.267C558.279 244.267 595.987 194.589 578.059 151.294Z" fill="#006D4E"/>
<path d="M560.972 251.88C560.972 251.88 492.71 248.574 462.83 284.64C462.83 284.64 549.272 275.874 560.972 251.88Z" fill="#006D4E"/>
<path d="M575.786 266.876C575.786 266.876 496.414 271.183 465.019 312.402C465.019 312.402 559.204 306.865 575.786 266.876Z" fill="#004A20"/>
<path d="M575.028 262.262C575.028 262.262 574.018 215.276 603.393 169.289C603.393 169.289 617.112 207.201 580.33 267.03L575.028 262.262Z" fill="#004A20"/>
<path d="M587.822 282.179C587.822 282.179 523.432 299.251 489.848 342.777C489.848 342.777 565.517 343.008 594.218 286.409L587.822 282.179Z" fill="#004A20"/>
<path d="M594.724 278.873C594.724 278.873 606.844 219.428 644.72 192.82C644.72 192.82 634.536 248.497 601.121 284.948L594.724 278.873Z" fill="#006D4E"/>
<path d="M605.413 295.176C605.413 295.176 547.505 332.78 520.991 372.538C520.991 372.538 584.96 352.236 611.81 301.251L605.413 295.176Z" fill="#006D4E"/>
<path d="M513.164 210.738C513.164 210.738 664.501 337.164 688.91 413.757C688.91 413.757 691.183 418.064 695.896 414.065C700.526 410.143 655.832 316.016 513.164 210.738Z" fill="#004A20"/>
<path d="M415.526 346.623C415.47 346.11 415.442 345.623 415.442 345.161C415.498 344.444 415.33 343.752 414.937 343.085C414.713 342.419 414.292 341.829 413.675 341.316C413.17 340.804 412.553 340.445 411.823 340.24C411.094 339.881 410.336 339.727 409.55 339.778C408.989 339.83 408.456 339.881 407.951 339.932C406.941 340.189 406.071 340.65 405.342 341.316C405.005 341.727 404.697 342.111 404.416 342.47C403.855 343.29 403.574 344.187 403.574 345.161C403.574 345.623 403.546 346.11 403.49 346.623C403.49 347.34 403.687 348.032 404.079 348.699C404.304 349.365 404.697 349.955 405.258 350.468C405.819 351.032 406.464 351.416 407.194 351.621C407.923 351.98 408.709 352.134 409.55 352.083C410.055 352.031 410.589 351.954 411.15 351.852C412.16 351.596 413.029 351.134 413.759 350.468C414.096 350.109 414.404 349.75 414.685 349.391C415.246 348.519 415.526 347.597 415.526 346.623Z" fill="#004A20"/>
<path d="M432.529 362.464C438.926 362.464 439.01 353.313 432.529 353.313C426.048 353.313 426.048 362.464 432.529 362.464Z" fill="#004A20"/>
<path d="M414.853 360.772C414.517 360.772 414.208 360.798 413.928 360.849C413.815 360.849 413.675 360.849 413.507 360.849C413.451 360.849 413.394 360.849 413.338 360.849C413.086 360.926 412.918 360.926 412.665 360.926C412.16 360.977 411.683 361.131 411.234 361.388C411.01 361.541 410.757 361.721 410.477 361.926C412.609 362.439 414.741 362.951 416.874 363.464C416.761 363.156 416.621 362.849 416.453 362.541C416.228 362.336 416.032 362.105 415.863 361.849C415.471 361.49 415.05 361.234 414.601 361.08C414.096 360.875 413.591 360.772 413.086 360.772C412.525 360.772 412.02 360.875 411.571 361.08C411.066 361.234 410.645 361.49 410.308 361.849C409.915 362.157 409.635 362.541 409.467 363.002C409.242 363.413 409.13 363.874 409.13 364.387C409.186 364.694 409.242 365.002 409.298 365.309C409.467 365.925 409.803 366.463 410.308 366.924C410.589 367.078 410.841 367.258 411.066 367.463C411.683 367.77 412.356 367.924 413.086 367.924C413.423 367.873 413.759 367.847 414.096 367.847C414.601 367.693 415.05 367.463 415.443 367.155C415.835 366.899 416.172 366.566 416.453 366.155C416.621 365.899 416.761 365.617 416.874 365.309C414.741 365.822 412.609 366.335 410.477 366.847C410.757 367.053 411.01 367.232 411.234 367.386C411.571 367.488 411.879 367.617 412.16 367.77C412.497 367.847 412.918 367.847 413.254 367.847C413.366 367.899 413.451 367.924 413.507 367.924C413.675 367.924 413.815 367.924 413.928 367.924C414.208 367.924 414.517 367.95 414.853 368.001C415.358 368.001 415.863 367.899 416.368 367.693C416.817 367.54 417.238 367.283 417.631 366.924C418.024 366.617 418.304 366.232 418.473 365.771C418.697 365.361 418.809 364.899 418.809 364.387C418.753 364.079 418.697 363.746 418.641 363.387C418.473 362.823 418.136 362.31 417.631 361.849C417.35 361.644 417.07 361.439 416.789 361.234C416.172 360.926 415.527 360.772 414.853 360.772Z" fill="#004A20"/>
<path d="M430.761 338.24C437.158 338.24 437.242 329.089 430.761 329.089C424.28 329.089 424.28 338.24 430.761 338.24Z" fill="#004A20"/>
<path d="M453.739 362.464C460.22 362.464 460.22 353.313 453.739 353.313C447.258 353.313 447.258 362.464 453.739 362.464Z" fill="#004A20"/>
<path d="M441.283 375.768C440.946 375.512 440.637 375.255 440.357 374.999C440.188 374.896 440.02 374.794 439.852 374.691C439.796 374.64 439.768 374.614 439.768 374.614C439.711 374.614 439.655 374.589 439.599 374.537C439.543 374.537 439.459 374.512 439.347 374.461C439.178 374.358 439.01 374.255 438.842 374.153C438.673 374.102 438.505 374.05 438.337 373.999C438.056 373.897 437.804 373.871 437.579 373.922C437.411 373.922 437.242 373.974 437.074 374.076C436.85 374.127 436.653 374.255 436.485 374.461C436.373 374.563 436.26 374.666 436.148 374.768C436.092 374.922 436.036 375.076 435.98 375.23C435.868 375.435 435.84 375.665 435.896 375.922C435.952 376.178 436.036 376.409 436.148 376.614C436.401 377.075 436.653 377.537 437.074 377.998C437.355 378.254 437.635 378.536 437.916 378.844C438.14 379.049 438.393 379.177 438.673 379.228C438.954 379.382 439.263 379.459 439.599 379.459C439.936 379.459 440.244 379.382 440.525 379.228C440.806 379.177 441.058 379.049 441.283 378.844C441.395 378.69 441.507 378.536 441.619 378.382C441.844 378.075 441.956 377.716 441.956 377.306C441.9 377.101 441.872 376.921 441.872 376.768C441.76 376.409 441.563 376.075 441.283 375.768Z" fill="#004A20"/>
<path d="M628.56 0.183228C628.56 0.183228 642.701 22.4076 642.112 45.3242C641.438 68.1638 627.466 117.996 627.466 117.996C627.466 117.996 592.283 56.321 628.56 0.183228Z" fill="#004A20"/>
<path d="M626.203 136.836C628.223 137.452 618.88 101.77 577.553 72.7778C577.553 72.7778 587.654 124.302 626.203 136.836Z" fill="#004A20"/>
<path d="M563.328 115.15C563.328 115.15 619.216 128.685 625.95 150.602C625.95 150.602 579.404 144.603 563.328 115.15Z" fill="#006D4E"/>
<path d="M628.139 167.289C628.139 167.289 601.793 144.142 561.392 135.914C561.392 135.914 576.458 160.753 628.307 172.134L628.139 167.289Z" fill="#004A20"/>
<path d="M628.139 184.669C628.139 184.669 588.327 161.752 554.827 166.982C554.827 166.982 591.525 188.975 628.476 190.59L628.139 184.669Z" fill="#006D4E"/>
<path d="M628.981 199.895L628.728 207.893C628.728 207.893 597.501 229.502 557.521 214.122C557.521 214.122 598.848 197.819 628.981 199.895Z" fill="#004A20"/>
<path fill-rule="evenodd" clip-rule="evenodd" d="M669.13 540.952C646.825 560.408 642.785 569.636 612.399 578.018C581.93 586.323 583.95 587.246 546.495 594.705C508.955 602.088 486.65 603.933 470.405 603.011C454.161 602.088 433.876 595.628 415.611 604.856C415.611 604.856 413.591 571.558 434.886 541.874C456.181 512.267 447.09 510.345 479.496 482.584C511.985 454.822 533.28 439.98 572.84 439.98C612.399 439.98 606.255 464.051 618.46 464.973C630.58 465.896 663.069 457.591 679.314 472.356C695.559 487.198 691.435 521.496 669.13 540.952ZM474.445 540.029C466.365 532.646 417.715 561.33 434.886 565.944C452.14 570.558 482.61 547.411 474.445 540.029ZM519.981 500.578C531.849 492.811 509.797 489.659 491.953 492.042C474.109 494.35 461.315 504.424 467.291 511.422C473.267 518.42 508.113 508.346 519.981 500.578ZM531.26 533.569C498.77 529.801 479.496 591.014 514.005 591.937C548.515 592.86 563.665 537.26 531.26 533.569ZM551.461 461.743C543.801 455.514 518.298 457.052 522.506 465.589C526.799 474.125 559.036 467.972 551.461 461.743ZM588.916 457.283C593.63 449.285 575.365 443.441 566.611 447.824C557.857 452.131 584.118 465.281 588.916 457.283ZM578.9 518.727C564.675 515.959 559.625 557.639 577.89 554.871C596.155 552.102 593.125 521.496 578.9 518.727ZM657.009 502.962C647.835 487.198 616.439 474.278 603.225 484.429C590.094 494.657 617.45 498.348 632.684 514.113C647.835 529.801 653.979 534.492 653.979 534.492C674.264 538.183 666.1 518.727 657.009 502.962Z" fill="#0F7F5D"/>
<path d="M589.758 550.641C612.231 544.027 594.05 501.655 575.281 499.04C565.18 497.579 563.581 514.267 567.705 529.109C569.81 522.649 573.766 517.727 578.9 518.727C590.6 521.034 594.724 542.182 585.549 551.102C586.896 551.205 588.299 551.051 589.758 550.641Z" fill="#006F54"/>
<path d="M612.399 578.018C642.785 569.635 646.825 560.407 669.13 540.951C691.435 521.495 695.559 487.198 679.314 472.356C678.697 471.843 678.052 471.33 677.378 470.818C674.601 479.431 672.581 487.89 669.13 491.043C660.46 498.963 654.063 472.433 623.931 475.355C619.049 475.816 615.766 477.816 613.578 480.892C628.644 479.815 649.771 490.504 657.009 502.962C666.099 518.727 674.264 538.183 653.979 534.492C653.979 534.492 647.835 529.801 632.684 514.113C625.866 507.038 616.608 502.347 609.622 498.502C609.369 519.496 616.187 549.564 603.477 566.713C585.97 590.399 574.691 565.406 548.767 559.792C546.326 575.557 533.112 592.398 514.005 591.937C504.915 591.629 499.612 587.246 497.255 580.94C493.804 584.708 489.091 588.784 481.936 593.244C451.804 611.931 460.473 591.322 436.822 593.244C429.415 593.859 422.092 598.012 415.611 603.472C415.611 604.395 415.611 604.856 415.611 604.856C433.876 595.628 454.16 602.088 470.405 603.011C486.65 603.933 508.955 602.088 546.495 594.705C583.95 587.246 581.93 586.323 612.399 578.018Z" fill="#006F54"/>
<path d="M415.611 604.856C416.453 602.472 417.631 600.242 418.893 598.012C420.24 595.808 421.727 593.68 423.354 591.629C426.553 587.554 430.425 583.862 434.633 580.556C438.842 577.249 443.387 574.404 448.184 571.866C452.898 569.328 457.527 566.944 461.988 564.253C470.994 558.869 479.748 553.179 487.912 546.95C496.077 540.644 503.905 534.03 510.722 526.648L513.248 523.879L515.688 521.034C516.53 520.111 517.288 519.112 518.045 518.112L520.318 515.113C523.6 510.729 527.304 506.884 531.26 503.347C535.3 499.809 539.508 496.503 543.801 493.427C548.178 490.274 552.639 487.351 557.268 484.66C566.527 479.123 576.206 474.432 586.391 470.587C591.525 468.741 596.744 467.126 602.131 466.05C604.824 465.512 607.517 465.127 610.295 464.896C612.988 464.666 615.766 464.666 618.46 464.973C612.989 465.127 607.77 466.281 602.72 467.896C597.585 469.434 592.704 471.433 587.906 473.663C583.136 475.868 578.479 478.252 573.934 480.815C569.389 483.43 564.843 486.121 560.551 488.966C551.966 494.811 543.633 500.963 536.31 507.884C532.606 511.345 529.156 514.959 526.294 518.804C523.264 522.957 519.981 527.263 516.362 531.031C514.594 532.954 512.658 534.799 510.722 536.645C508.787 538.414 506.851 540.259 504.831 541.951C500.79 545.489 496.666 548.719 492.289 551.871C487.997 554.948 483.536 558.024 478.99 560.792C476.718 562.176 474.361 563.56 472.089 564.868C469.732 566.175 467.375 567.482 465.018 568.713C460.221 571.251 455.339 573.558 450.457 575.711C445.743 577.864 441.114 580.325 436.822 583.17C432.529 585.939 428.573 589.245 424.954 592.86C421.334 596.474 418.052 600.396 415.611 604.856Z" fill="#006A45"/>
<path d="M479.495 482.584C496.161 474.355 517.708 477.431 533.953 469.818C528.734 469.741 524.021 468.511 522.506 465.589C518.802 458.206 537.74 456.053 547.672 459.744C555.921 451.593 554.827 448.132 566.611 447.824C574.354 443.979 589.505 448.055 589.673 454.515C595.565 456.36 601.457 457.052 607.012 453.515C602.13 446.978 594.134 439.98 572.839 439.98C533.28 439.98 511.985 454.822 479.495 482.584Z" fill="#006F54"/>
<path d="M431.266 562.561C431.266 560.869 432.528 558.793 434.633 556.562C435.194 555.486 435.699 554.409 436.148 553.333C444.817 532.108 450.625 534.107 461.483 520.88C464.345 517.343 465.691 513.652 466.365 509.96C465.439 507.961 465.775 505.808 467.122 503.731C467.543 499.271 467.964 494.965 470.068 491.043C448.773 511.114 453.823 515.574 434.885 541.874C426.552 553.486 421.839 565.637 419.146 576.172C423.101 572.789 427.478 568.328 431.266 562.561Z" fill="#006F54"/>
</svg>
