<?xml version="1.0" standalone="no"?>
<svg xmlns="http://www.w3.org/2000/svg" height="1920pt" preserveAspectRatio="xMidYMid meet" viewBox="0 0 1839 1920" width="1839pt">
  <path d="m11445 19190c-687-60-1310-270-2225-750-307-161-380-209-521-350-134-134-230-270-319-454-200-414-298-1005-270-1635 10-221 29-441 39-441 3 0 31 42 61 93 233 393 543 770 803 975 370 292 900 570 1517 793 239 87 593 188 975 279 84 20 41 0-87-40-231-73-645-219-863-305-618-245-948-420-1211-646-569-488-1074-1170-1074-1451 0-28 5-102 12-164 9-85 15-115 27-120 9-4 70-9 136-11 182-7 411 30 700 114 400 116 659 261 1135 637 345 273 487 379 655 491 261 174 506 295 649 323 115 22 580 21 876-2 411-31 1274-126 1289-142 3-3-14-4-39 0-360 48-1144 79-1492 57-405-25-612-68-843-176-278-130-492-281-1095-770-587-477-797-618-1220-824-270-131-465-191-554-171-20 4-36 7-36 5 0-8 76-197 130-324 234-549 428-956 529-1108 87-131 105-138 316-137 195 1 348 23 922 128 662 123 645 121 1033 120 184 0 425-5 535-12 477-30 1712-127 1745-137 8-2-35-2-97 1-562 26-1489 32-1958 14-658-26-1180-99-1743-245-189-50-440-129-466-148-15-11-5-39 99-277 64-146 171-389 237-540s161-367 210-480c50-113 119-270 153-350 35-80 104-239 155-355 50-115 141-322 201-460 61-137 120-272 132-299l22-49 195 7c107 3 398 14 645 23 248 9 569 17 715 17 236 1 279-2 395-22 223-40 473-98 726-167 134-37 271-74 304-83 33-8 65-19 70-25 7-6 2-8-15-3-54 14-446 66-635 85-339 34-578 44-910 38-422-8-717-43-1020-121-130-34-285-91-285-105 0-9 897-1852 1584-3256l186-380 203-41c493-102 888-226 1170-368 313-158 804-530 1237-936 64-60 91-78-235 155-621 442-945 637-1187 714-117 37-306 76-443 91-93 10-503 16-511 7-2-2 17-51 42-108 26-57 100-227 165-376 182-417 346-792 464-1063 59-135 161-368 226-517 66-150 172-396 238-545 65-150 166-381 223-513 58-132 121-276 142-319 20-44 35-81 33-82-2-2-75 128-164 289s-219 398-291 527c-71 129-165 300-209 380s-129 233-188 340-146 265-192 350c-47 85-146 265-221 400-153 278-411 745-529 960-131 238-282 511-408 740-208 376-336 608-505 918-91 166-167 301-170 301-6 1-73-100-258-389-415-647-979-1592-1088-1825-100-215-175-467-216-730-18-116-22-185-22-405-1-146 3-296 7-335 4-38 5-67 2-64s-15 84-26 180c-30 247-37 688-15 897 21 193 47 333 93 492 163 567 620 1450 1291 2494l115 178-58 112c-32 61-146 278-253 481-107 204-241 459-298 568-57 108-152 288-210 400-59 111-150 285-204 387-552 1052-649 1235-658 1238-5 1-78-68-163-155-917-939-1668-1878-2171-2715-171-285-505-926-1164-2235-169-337-309-611-311-610-1 2 33 93 76 203 85 213 252 647 349 909 193 519 284 752 378 963 462 1041 1220 2205 2209 3392 201 241 349 412 501 575l102 111-72 154c-40 85-131 277-201 425-70 149-169 358-220 465s-156 330-235 495c-78 165-176 372-217 460s-77 162-79 164c-6 6-168-77-329-170-691-397-1564-1057-2455-1858-814-732-1318-1258-1736-1811-230-305-470-693-573-928-26-59-53-118-59-132l-12-25 6 25c12 49 78 207 164 391 248 532 666 1181 1165 1809 174 218 290 347 514 570 466 464 875 800 1947 1601 814 607 1020 784 1091 937 24 50 25 58 14 126-28 193-183 538-413 923-44 74-51 81-71 74-12-5-107-45-212-89-935-395-2011-836-2505-1027-468-181-736-310-1155-558-529-313-1196-766-1855-1259-214-160-186-132 185 186 933 800 1697 1375 2243 1687 573 328 1632 795 2909 1282 89 34 159 65 155 68-13 13-326 120-477 164-411 119-846 204-1205 236-252 22-619 2-935-52-281-48-685-142-910-213-60-19-111-34-113-32-6 7 398 160 673 256 257 89 735 216 945 252 117 20 590 17 765-5 350-45 777-133 1098-226 37-11 67-18 67-17s-24 18-52 36c-29 19-105 68-168 109-521 337-1164 676-1625 858-300 118-535 188-777 234-280 52-877 28-1133-46-391-114-753-450-1460-1355-256-328-1186-1574-1418-1899-293-413-487-839-607-1336-172-705-182-1421-34-2310 241-1445 957-3172 2012-4855 137-219 342-524 347-518 2 2 20 62 40 133 139 494 305 1002 431 1320 220 552 467 897 1294 1805 410 450 438 482 760 885 588 736 950 1107 1285 1321 316 202 611 249 783 124 67-48 87-97 86-210 0-80-5-110-32-187-162-473-798-1284-1839-2345-426-435-647-691-894-1039-343-482-617-1027-764-1520-116-390-181-895-156-1214 41-522 276-982 736-1440 496-495 1241-947 2165-1313 163-65 459-166 465-160 3 3-4 27-15 53-93 217-238 700-295 980-53 264-77 591-56 773 22 185 99 457 223 787 69 182 144 351 351 785 198 417 270 573 367 795 295 672 719 1334 1123 1751 252 261 447 382 600 372 78-5 121-32 151-97 31-67 27-216-9-376-52-232-213-676-390-1080-281-642-437-1022-509-1242-113-348-195-777-227-1184-15-205-7-706 15-889 54-442 176-920 292-1140 171-324 535-531 1099-625 200-33 314-43 605-56 354-15 696-2 1540 57 629 43 816 43 1200-6 288-37 509-77 1065-193 369-78 656-131 818-152 139-18 374-20 449-4 179 38 220 117 513 989 188 559 312 876 468 1203 94 196 143 282 413 732 462 771 690 1218 824 1613 27 81 59 188 71 237 26 115 37 349 20 437-13 65-138 375-194 483-41 77-141 179-240 243-163 106-516 266-1077 487-659 260-1036 433-1318 604-403 244-518 426-389 617 100 150 309 149 987-3 135-30 345-74 467-98s262-57 310-74c254-85 606-263 993-504 169-105 555-363 652-436 59-44 69-48 77-33 34 66 280 880 375 1242 72 278 146 638 182 895 25 172 25 477 0 565-41 151-136 299-290 459-281 290-727 575-1391 889-213 101-596 269-777 341-139 55-499 177-708 241-1106 334-1389 437-1598 578-229 156-263 350-82 470 188 126 555 181 1130 169 530-12 969-61 1375-157 438-103 1361-406 2027-665 78-31 145-54 149-53 11 5-106 675-197 1123-111 543-183 783-402 1330-375 938-956 1848-1781 2790-372 425-934 993-1296 1310-753 660-1525 1035-2345 1140-147 19-577 28-725 15z" transform="matrix(.1 0 0 -.1 0 1920)" fill="#09630B" stroke="none" stroke-width="2" vector-effect="non-scaling-stroke"/>
</svg>
