<?xml version="1.0" standalone="no"?>
<svg xmlns="http://www.w3.org/2000/svg" height="1920pt" preserveAspectRatio="xMidYMid meet" viewBox="0 0 1431 1920" width="1431pt">
  <path d="m5265 19158c-2-7-40-137-84-288s-141-484-217-740c-184-627-191-651-220-760-42-160-186-769-305-1285-62-269-115-493-118-497-4-4-51 68-105 159l-99 167 42 175c121 511 142 758 95 1126-15 118-18 218-18 645-1 318 4 561 12 655 25 301 25 295-13 135-102-427-201-924-252-1265-34-227-21-704 32-1189 8-72 13-131 12-133-2-1-38 48-80 111l-77 114v178c0 218-17 623-31 758-6 55-21 134-35 176-31 99-171 379-274 550-140 230-175 361-189 700l-6 155-23-95c-46-194-52-247-52-436 0-393 63-743 207-1149 25-71 61-166 80-209 18-43 32-80 31-81-2-2-61 51-133 117-432 400-456 419-1330 1019-516 356-469 326-420 259 94-131 404-534 580-755 430-538 563-666 910-874 122-74 435-234 558-287 57-24 80-42 138-106 39-43 88-111 109-153 22-41 38-75 36-75-3 0-67 42-143 94-259 175-488 295-688 361-210 69-594 155-1000 225-194 33-578 91-582 87-1-2 224-99 500-216 276-118 608-261 737-318 334-148 694-263 1124-359l128-29 48-95c55-111 210-444 210-452 0-3-87 42-192 102-305 170-844 463-944 513-226 113-531 224-749 272-66 14-352 85-635 157-283 71-578 145-655 164s-157 38-177 43c-22 5-36 5-32 0 3-5 9-9 14-9 22 0 897-394 1414-637 652-306 895-403 1705-679 184-63 337-116 339-119 9-8 111-240 107-243-1-2-83 32-181 76-259 115-709 306-833 354-250 96-396 128-866 188-218 28-422 57-530 76-317 53-798 239-1529 590-164 79-296 141-294 138 3-2 146-105 319-229 327-234 399-277 674-400 271-122 524-216 753-279 105-29 133-43 407-195 238-132 435-221 657-296 367-123 931-241 1398-291l155-17 86-201c48-111 85-202 84-204-2-2-360 116-797 262-812 272-934 308-1238 370-262 53-412 74-655 91-203 15-388 31-1465 129-212 20-419 38-460 41l-75 5 130-34c72-18 364-93 650-165 286-73 579-147 650-166 72-18 229-59 350-90s310-81 420-111c648-179 1220-297 2339-480l229-38 20-45c61-137 273-671 267-671-4 0-174 75-376 166-427 192-1194 533-1336 593-185 78-566 200-843 270-66 16-254 55-417 85-163 31-575 112-915 181s-733 148-873 175-266 52-278 55c-14 3-21 2-18-3 3-6 18-13 33-17 69-17 1421-514 2188-805 822-311 1326-470 2486-786l436-119 66-170c183-467 197-506 175-499-12 3-206 99-432 211-693 346-1310 645-1436 695-348 139-740 259-1065 327-370 77-730 156-1405 310-379 86-865 191-885 191-5 0 269-112 610-249s694-279 785-316 237-96 325-132 333-137 545-225c501-208 621-255 1105-433 375-137 779-266 1730-553 228-69 230-70 243-103 39-95 251-683 247-687-4-5-58 18-940 386-1454 607-1480 617-1612 647-59 13-218 43-353 65-489 81-608 109-820 187-285 105-1081 449-2009 867-69 31-127 56-130 56-2 0 89-58 205-128 115-71 303-186 419-257 115-70 247-156 292-190 138-102 431-272 708-411 235-118 350-171 657-304 119-51 184-90 403-240 217-149 338-222 533-320 453-227 800-338 1483-474 249-50 905-168 1184-213l109-18 39-110c102-289 168-487 164-491-2-3-82 24-178 60-96 35-248 91-339 124-175 64-673 248-1055 389-126 46-403 149-615 228s-437 157-500 174c-162 43-468 103-859 167-406 67-1336 251-2191 434-80 17-158 29-175 28-28-3-27-4 15-16 25-7 155-44 290-82 614-173 1243-383 1760-587 261-103 311-129 560-298 397-270 650-402 1079-561 351-131 942-259 2081-449 151-25 278-49 281-53 7-7 199-586 195-588 0-1-95 30-211 68-654 214-1325 398-1726 472-265 49-418 59-1414 96-642 24-757 38-1030 127-277 90-593 244-940 456-144 88-399 260-510 343-45 34-82 54-98 54-15 0-27-4-27-9 0-4 73-82 163-172 575-580 1203-957 1778-1068 112-21 347-46 524-56 222-12 463-37 591-60 297-55 600-168 884-330 187-107 458-164 935-196 191-13 941-17 1081-5 83 7 92 6 96-11 3-10 69-218 147-462 77-245 140-446 138-447-1-2-155 53-342 122-1144 420-1724 634-1998 738-328 124-573 183-1147 275-225 36-329 46-890 86-693 49-1352 97-1664 120-110 8-201 14-203 12s36-12 84-21c471-92 1305-306 1738-446 364-118 486-163 818-300 424-174 1384-528 1601-590 292-84 949-180 1741-255 280-27 347-34 353-39 3-4 201-651 202-662 0-4-2320 870-2640 995-85 33-202 73-260 90-210 61-603 140-1120 226-337 56-957 182-2061 419-245 53-454 96-464 96-39 0 3-17 120-49 641-176 1509-467 2125-713 296-119 380-160 535-268 454-313 611-408 895-540 185-86 453-195 604-245 329-110 1217-295 2194-458 112-19 207-38 211-43 8-8 201-660 201-676 0-4-26 4-57 18-775 347-1259 553-1388 590-498 144-1689 369-2250 425-106 11-3073 24-3050 14 6-2 191-22 411-45 272-27 450-40 551-40 569 0 1406-239 2300-656 279-130 381-171 569-229 291-90 773-205 1109-264 369-65 1206-177 1760-236 88-10 165-23 171-29 12-11 128-406 122-412-10-9-1117 245-1373 316-427 118-968 221-1395 266-114 12-280 16-630 19-519 3-748 15-1290 71-675 69-1561 197-2282 330-103 19-193 34-200 33-7 0 25-12 72-26 47-13 400-119 785-234 384-115 708-209 720-209 30 0 280-53 440-94 341-86 799-230 1290-406 352-126 655-208 1040-284 657-128 1100-161 2508-183 376-5 429-8 436-22 14-26 194-672 189-677-3-2-43 12-89 32-465 200-924 352-1174 388-143 21-1081 31-1575 17-891-25-1939-128-3250-318l-265-38 190-7c105-3 415-9 690-12 618-6 727-17 1545-157 300-51 505-72 805-84 674-25 957-37 1205-50 453-24 743-34 1390-46 333-6 608-14 611-18 8-8 133-461 128-465-2-2-58 10-124 25-349 83-731 177-895 221-240 64-363 79-670 80-475 1-732-48-1029-196-388-195-876-531-1528-1053-219-176-285-232-220-191 12 8 270 160 572 338 303 178 610 359 684 402 217 129 422 210 635 253 302 60 558 38 1071-91 121-30 265-62 320-71 135-21 781-29 1056-14 111 7 204 10 207 7 3-4 161-581 162-594 0-2-8-1-17 2-10 3-72 14-138 25-556 92-1085 106-1480 40-334-56-589-131-698-206-51-36-319-321-392-418-83-111-124-149-327-302-98-73-178-135-178-138s28 14 63 36c133 87 390 203 632 286 317 108 462 132 865 143 173 5 351 14 395 20 126 17 665 116 1277 234 64 13 67 13 72-8 27-93 268-1069 320-1291 67-293 143-651 173-819l18-99 153 230 153 230-116 399c-108 370-241 821-495 1683-55 189-99 345-97 348 5 5 649-12 1057-28 258-10 318-9 478 5 351 32 747 87 1092 152 199 38 261 59 515 177 294 136 1591 794 1583 802-3 3-617-187-1638-507-216-67-225-69-460-99-231-29-541-38-920-27-179 6-381 7-450 4-241-10-673-86-1173-206-108-26-160-34-163-26-28 81-131 453-126 458 23 21 1200 620 1467 746 418 197 886 458 1150 641 171 118 248 183 455 386 667 650 1593 1506 2412 2229 160 141 201 182 106 106-422-338-965-761-1030-803-317-204-827-454-1511-740-135-57-281-127-367-176-258-148-655-423-1040-718-163-125-1373-1096-1670-1340l-64-53-13 42c-7 24-57 194-112 378-75 254-96 338-88 346 28 28 1175 732 1419 872 557 320 1175 756 1464 1034 59 57 152 159 207 228 156 193 1034 1373 1386 1860 23 32 21 32-25-11-27-25-400-390-830-811-691-677-792-772-886-835-123-82-252-146-623-311-387-171-807-384-1005-510-230-146-644-532-1048-977-90-99-167-181-171-183-4-1-69 206-145 460-76 255-140 468-142 473-2 6 99 57 224 114 525 241 997 452 1147 513 598 245 1182 550 1465 765 52 39 133 106 180 149 596 540 1607 1394 2543 2148 81 65 147 121 147 123 0 3-15-6-34-20-187-143-981-711-1046-749-301-175-847-409-1547-663-112-41-241-92-287-114-206-96-566-311-916-546-267-180-406-280-1233-885-395-289-721-526-725-528-5-1-34 84-66 189-46 157-55 194-44 204 11 11 449 284 858 535 246 151 460 279 613 367 557 316 1116 707 1386 967 57 56 183 196 280 311 532 635 1394 1595 2175 2423 116 123 229 244 251 270s-180-162-450-417c-269-255-533-496-585-536-323-244-924-599-1585-933-235-119-392-224-700-471-416-333-650-547-1480-1351-755-732-869-840-876-832-6 7-219 721-219 734 0 4 168 120 373 259 785 532 1015 690 1103 761 128 102 465 397 894 783 707 636 763 681 1125 910 476 302 1228 741 1985 1160 168 93 310 172 315 177 6 5-28-9-75-30-195-90-938-441-1245-587-181-87-379-181-440-210-443-211-677-325-1240-606-878-437-1148-585-1338-736-331-264-773-760-1275-1433-101-135-193-258-205-274l-23-29-132 441c-73 243-135 448-138 455-3 9 100 89 298 232 864 625 1457 1064 1640 1217 165 137 506 478 663 663 312 368 527 681 857 1247 526 905 706 1233 927 1683 123 250 237 503 230 509-2 2-166-226-364-507-434-616-441-625-597-807-185-216-373-416-763-810-235-237-422-438-565-605-590-689-831-947-1410-1508-234-227-557-540-718-696s-295-281-298-279c-2 3-45 133-94 289-50 156-97 303-105 327l-14 42 427 342c750 601 1429 1151 1767 1432 194 160 386 350 603 594 253 284 331 391 561 764 130 210 328 514 766 1173 308 463 460 698 634 975 8 14-155-141-364-345-352-343-790-767-1115-1080-149-143-596-569-987-938-220-207-788-787-1018-1037-189-207-635-738-1085-1292-146-180-267-327-270-327-3-1-53 143-112 318l-106 320 360 428c1065 1264 1436 1718 1567 1913 284 421 451 724 599 1082 83 199 330 755 612 1373 193 422 341 754 472 1055 10 25 15 41 10 35-5-5-161-228-348-495-457-655-883-1255-1269-1790-458-635-649-913-997-1455-177-275-601-1008-983-1698-82-147-112-193-117-180-6 15-315 865-321 884-1 4 181 235 404 515 904 1133 1025 1291 1163 1513 207 334 314 540 426 821 72 181 282 673 505 1185 123 281 316 742 362 865 3 8-237-347-534-790s-608-904-691-1025c-447-648-787-1180-1031-1612-122-217-475-868-612-1130-35-68-67-123-70-123-4 0-14 21-24 48-10 26-71 183-137 348l-118 301 361 539c498 742 935 1401 1001 1511 92 152 193 413 324 836 163 525 309 948 673 1946 39 107 71 203 70 215 0 17-3 15-14-10-103-233-239-524-380-809-301-608-537-1018-793-1380-315-444-501-739-729-1154-153-279-388-820-583-1344-18-48-36-84-40-80s-22 46-40 93c-19 47-82 197-142 335l-108 249 92 171c721 1343 835 1560 872 1659 45 118 123 390 191 666 93 372 167 641 422 1523 63 219 113 403 110 410-2 7-14-19-27-58-12-38-62-176-110-305-273-731-494-1232-715-1620-149-262-187-332-301-561-246-491-389-856-599-1534l-38-120-18 40c-11 22-62 132-115 245-52 113-93 212-91 220 3 12 794 1455 1006 1835 74 133 81 155 126 370 19 94 49 217 66 275s77 263 134 455c57 193 156 527 220 743 64 217 115 395 113 397s-102-207-222-464c-121-256-331-700-468-987-282-594-321-686-724-1699-162-407-301-753-308-770-13-30-14-29-135 214l-122 243 15 37c11 29 350 763 692 1503 74 161 87 200 119 381 13 76 106 460 206 855 169 666 199 791 183 752-4-8-67-170-142-360-74-190-228-579-342-865-193-485-300-779-515-1415-177-524-208-617-237-703l-31-87-98 181-98 181 81 171c305 651 477 1085 549 1383 46 195 59 305 59 521 1 196 2 204 103 916 56 394 101 717 99 717-1 0-4-6-7-12z" transform="matrix(.1 0 0 -.1 0 1920)" fill="#09630B" stroke="none" stroke-width="2" vector-effect="non-scaling-stroke"/>
</svg>
