<?xml version="1.0" standalone="no"?>
<svg xmlns="http://www.w3.org/2000/svg" height="1920pt" preserveAspectRatio="xMidYMid meet" viewBox="0 0 1771 1920" width="1771pt">
  <path d="m8585 19144c-576-135-1017-289-1218-424-122-83-162-152-187-325-21-147-9-347 50-855 38-318 48-596 31-801-50-591-216-933-500-1029-208-70-394-10-541 176-148 186-302 599-344 919-39 303-46 828-16 1234 6 79 9 145 7 147-8 8-469-249-762-425-371-222-619-397-771-544-156-149-188-237-187-512 1-341 104-831 291-1385 143-423 271-709 497-1105 236-415 273-536 196-642-55-77-224-140-347-130-75 6-151 44-201 102-73 84-140 233-247 541-30 87-78 220-106 294-82 214-108 294-151 463-90 355-168 969-186 1457-3 99-9 180-13 180-21 0-226-63-288-89-179-74-339-184-447-307-119-135-204-215-365-344-267-214-387-358-491-590-221-494-139-979 359-2111 28-63 89-202 135-309 162-371 178-405 281-605 56-110 172-319 256-465 212-366 261-474 261-581 1-169-170-265-354-200-216 76-505 357-877 856-317 425-508 731-715 1145-98 195-214 458-265 600-13 36-24 66-26 68-7 11-79-41-143-102-160-155-336-417-539-806-126-241-215-467-269-685-25-99-28-127-28-290 0-159 3-189 23-260 49-167 129-301 299-497 539-624 1639-1660 2339-2203 205-160 298-225 659-466 500-333 679-464 795-581 93-95 112-159 60-208-65-61-193-76-332-41-231 59-492 195-1293 676-231 139-512 305-625 370-334 191-475 291-730 521-349 313-807 848-1093 1276-40 59-75 107-78 108-4 0-9-8-12-17-3-10-34-117-70-238-200-678-300-1209-301-1600 0-195 7-253 46-374 40-125 214-347 338-431 80-55 223-124 500-243 303-130 374-161 575-252 301-137 441-203 860-405 231-111 589-281 795-377 687-320 867-421 931-521 28-43 30-53 27-117-4-83-43-176-91-223-72-70-204-99-369-82-195 20-371 65-838 213-129 42-316 101-415 132-432 136-908 378-1675 852-80 49-170 106-201 126l-56 36-7-137c-8-161 8-592 29-801 86-824 310-1388 668-1677 325-263 606-369 882-334 97 12 189 34 470 110 309 85 433 106 855 145 493 46 839 44 1020-6 159-44 213-91 287-249 64-135 93-217 93-262 0-95-104-173-376-282-307-123-557-194-819-233-189-28-703-25-920 5-183 26-428 74-518 102-34 11-63 18-64 16-8-7 261-301 422-461 392-391 700-616 935-682 103-29 408-26 554 5 361 78 794 270 1306 580 164 100 544 354 695 466 517 383 1095 918 1469 1359 36 43 66 76 66 74 0-3-25-58-56-123-121-258-265-620-376-944-138-408-287-981-327-1265-64-450-53-1074 30-1685 18-137 87-542 93-547 2-2 95 38 207 87 112 50 215 95 227 100 13 6 22 16 19 23-3 6-24 53-46 103-160 365-242 959-213 1536 19 363 42 528 122 853 121 496 338 1075 630 1680 40 83 74 146 76 140 2-5 17-89 33-186 114-669 315-1417 517-1927 274-691 576-1082 957-1238 305-124 658-121 1052 11 88 29 196 70 240 90 100 46 265 136 265 145 0 4-25 10-55 14-91 10-312 71-440 121-373 144-611 337-802 651-73 120-96 183-101 280-5 99 14 149 101 268 115 157 156 186 260 186 213 0 478-204 836-645 85-105 186-220 224-257 181-178 369-230 997-274 299-21 481-15 615 20 501 131 914 620 1193 1411 53 151 142 468 142 507 0 11-18 8-87-15-186-60-460-118-738-153-182-24-600-24-785-1-560 71-1091 276-1343 520-71 68-119 152-121 208-5 217 499 210 1939-26 431-71 695-124 1140-229 521-123 697-149 1000-149 228 0 373 12 558 47 410 79 745 489 1015 1242 66 186 152 495 201 724 52 242 58 285 40 277-545-235-1110-370-1749-418-214-16-817-16-950 0-246 29-372 88-430 201-25 50-44 160-36 215 31 201 476 373 1319 510 244 39 524 73 937 110 518 48 659 68 940 137 228 55 474 157 630 260 234 154 310 374 297 863-8 300-46 576-138 990-33 150-146 592-155 603-1 2-116-95-256-215-471-404-749-623-863-678-175-85-377-84-538 2-127 69-247 223-247 318 0 134 134 296 380 460 166 111 354 196 591 269 279 86 551 252 788 481 267 258 423 529 461 799 31 220-31 595-174 1046-57 182-162 468-212 579l-30 64-28-69c-161-384-442-793-687-1000-204-173-473-318-626-339-70-9-148 14-211 64-58 46-161 169-194 232-32 61-31 156 1 219 83 158 357 331 721 455 269 92 354 148 454 298 76 114 151 304 175 441 16 87 13 255-5 344-35 172-134 366-313 616-242 336-352 538-437 799-15 48-31 87-34 87s-39-58-80-128c-369-630-727-1140-914-1301-131-113-348-250-483-304-169-67-278-72-374-14-116 69-148 172-90 292 81 169 314 360 804 659 516 315 1019 787 1183 1112 42 83 47 99 51 181 12 202-94 480-318 831-104 164-329 466-339 455-4-4-22-51-40-103-74-214-205-465-324-624-217-289-1041-1064-1571-1478-330-257-613-405-915-478-134-33-327-34-418-1-119 41-192 104-192 166 0 70 140 216 379 393 295 220 632 437 1246 805 231 138 447 271 480 296 87 65 255 231 350 346 359 435 578 900 536 1139-19 109-49 174-114 242-69 75-150 128-398 262-350 189-514 298-649 433-147 147-254 335-282 497l-12 69-50-23c-69-31-152-51-264-64-141-16-197-7-713 109-398 90-584 112-849 104-190-6-276-19-326-48-151-89-233-284-281-668-12-98-16-216-16-457 0-473 28-864 104-1475 72-574 76-776 18-952-27-83-68-136-131-173-144-82-268 2-407 276-145 288-275 769-341 1270-50 374-32 845 50 1305 67 369 235 890 382 1183 16 32 26 61 23 64-3 4-194 7-423 7-448 0-581-11-728-56-86-27-114-56-152-162-114-316-188-1014-163-1543 18-359 54-613 130-909 166-641 137-910-107-981-81-24-115-13-184 57-178 182-369 801-523 1694-72 416-92 681-75 979 18 326 61 586 145 875 19 68 34 125 33 126-2 1-84-17-183-41zm-1346-3989c77-36 165-131 231-250 30-55 96-196 147-314s106-237 122-265c42-75 124-267 159-376 116-352 115-600-4-755-68-90-220-156-360-156-128-1-231 33-359 117-238 156-421 428-551 819-65 198-88 332-87 500 1 240 51 373 193 516 125 126 251 187 385 188 55 1 82-5 124-24zm2321-105c155-78 250-222 463-700 111-251 135-316 166-450 38-168 35-293-9-379-51-100-183-149-310-117-104 27-176 72-280 176-169 169-305 395-386 643-65 199-86 310-88 447-1 131 15 198 64 271 80 121 256 172 380 109zm-4273-1863c192-98 396-334 843-977 90-129 232-327 315-440 323-436 425-620 442-796 9-96-16-164-85-233-31-31-84-70-117-86-54-27-69-30-155-30-83 0-101 4-145 27-169 90-338 266-732 766-357 453-660 1063-703 1414-22 182 33 324 145 375 43 20 131 10 192-20zm8518-12c78-20 140-60 178-113 26-35 31-53 31-95 0-86-41-155-169-282-166-167-359-304-885-632-124-77-342-216-485-310-309-203-447-281-581-330-91-34-108-37-209-37-97-1-115 2-155 22-91 48-167 144-196 251-36 127 9 232 166 391 117 119 240 217 574 457 274 196 425 285 703 417 470 222 827 313 1028 261zm-5379-360c115-56 193-150 352-425 49-85 112-190 140-232 74-115 156-280 193-393 27-85 33-115 33-200 1-123-21-178-90-226-77-53-146-72-264-73-157-1-283 43-447 156-90 62-243 220-307 317-120 181-214 406-236 567-29 215 58 385 243 478 102 51 168 67 255 62 53-3 89-12 128-31zm6887-1367c50-15 111-69 136-121 55-114 9-247-138-400-183-190-377-299-696-393-119-35-304-44-386-20-64 18-144 83-165 132-28 68 20 172 138 298 246 264 628 476 933 520 41 6 132-2 178-16zm-11405-646c99-38 218-131 501-394 195-182 314-313 471-523 193-257 321-476 380-653 34-102 41-226 16-286-56-133-189-85-466 169-52 47-113 105-135 128s-114 121-205 217-257 269-370 385c-292 298-388 425-432 568-38 126-13 265 63 352 52 59 95 68 177 37zm9850-128c87-43 149-144 159-255 5-52 2-67-26-123-68-139-228-252-739-520-239-126-387-188-627-265-484-154-806-169-945-44-110 99-87 204 75 341 121 103 407 257 819 441 76 35 270 125 430 200 430 204 557 249 712 250 78 1 97-2 142-25zm1167-1839c117-31 180-102 179-205 0-70-21-109-95-181-100-98-277-196-764-424-127-59-291-138-365-175-153-76-382-150-760-245s-601-129-840-130c-144 0-174 3-237 23-83 26-129 60-154 117-26 56-24 100 7 152 69 119 311 233 864 407 428 135 599 197 830 299 479 211 807 325 1039 362 118 18 225 18 296 0zm-8708-325c109-57 412-263 543-369 107-86 369-354 435-443 108-147 165-269 165-354 0-53-25-102-55-110-98-24-257 68-660 382-99 77-229 178-290 224-285 216-391 325-432 447-30 88 0 213 64 263 44 35 111 23 230-40zm4761-526c141-29 221-90 242-186 18-79 2-127-67-199-65-69-186-133-326-173-148-43-205-49-411-43-261 7-378 37-471 119-72 62-94 151-55 215 60 99 399 238 661 271 125 16 341 14 427-4zm1933-1758c120-22 184-62 238-150 59-98 43-166-50-213-98-51-480-124-759-145-239-18-600 5-766 48-100 26-192 73-235 122-124 141 36 212 611 272 193 20 627 67 685 73 72 9 206 5 276-7zm-7141-473c184-30 378-109 439-179 93-105 37-245-118-295-82-27-318-38-413-19-144 28-362 123-445 195-119 102-106 246 26 290 110 36 320 40 511 8zm3442-443c194-38 347-106 393-176 41-63 25-148-35-193-82-60-328-69-485-16-168 56-320 154-345 221-6 14-10 44-10 68 0 83 70 114 262 115 78 1 151-6 220-19z" transform="matrix(.1 0 0 -.1 0 1920)" fill="#09630B" stroke="none" stroke-width="2" vector-effect="non-scaling-stroke"/>
</svg>
