<?xml version="1.0" standalone="no"?>
<svg xmlns="http://www.w3.org/2000/svg" height="1332pt" preserveAspectRatio="xMidYMid meet" viewBox="0 0 1920 1332" width="1920pt">
  <path d="m10810 13309c0-13 92-196 143-284 22-38 81-131 130-205 440-660 1141-1352 1852-1829 77-52 144-97 148-101 5-4-47-37-115-73s-154-83-193-104l-70-39-130 121c-850 791-1959 1350-3015 1519-127 21-369 46-438 46h-55l19-21c46-52 281-251 409-347 717-538 1772-1058 2761-1362 109-34 207-65 216-68 12-5-23-30-130-91-81-46-252-147-380-223l-233-139-112 79c-256 181-521 336-886 516-1013 500-2188 843-3230 941-90 9-165 14-168 11-15-14 286-237 512-379 877-549 2127-1037 3347-1307 121-27 222-50 223-52 2-2-62-45-143-95-81-51-241-155-356-230l-210-138-290 145c-427 214-746 346-1205 500-777 260-1618 437-2521 529-359 37-916 71-1145 71l-110-1 60-34c102-60 542-278 705-349 1114-491 2424-802 4103-975 104-11 191-21 193-23s-74-58-169-123c-95-66-273-192-397-280s-230-164-236-168c-6-3-90 21-187 54-1280 439-2799 627-4427 549-324-16-807-53-817-64-2-1 67-29 153-61 955-351 1959-554 3164-639 432-31 697-39 1257-40 315-1 573-3 572-6 0-3-93-75-207-160s-339-258-500-383l-292-228-183 60c-675 220-1321 338-2202 403-227 16-1130 17-1380 0-422-28-831-69-1170-117-313-45-685-109-673-116 27-15 361-123 538-174 1233-355 2695-446 4516-280 149 14 278 25 288 25s-106-101-256-224-364-301-476-395l-203-172-92 30c-1329 425-2812 473-4342 141-247-53-285-63-285-69 0-3 24-13 53-22 28-9 118-37 198-62 607-191 1229-299 1938-338 243-13 997-7 1231 11 264 19 582 50 819 80 129 17 236 29 237 27 2-2-482-429-691-610l-45-39-177 36c-293 58-590 97-978 128-209 16-938 16-1155 0-832-63-1503-194-2185-426-239-81-257-87-251-93 8-8 219-54 411-88 907-162 1917-167 2940-14 332 49 745 130 1020 199 61 15 111 27 113 25 1-1-89-84-200-186-112-101-319-291-461-423l-259-239-51 12c-471 113-812 165-1240 190-792 47-1675-62-2546-314-173-50-588-187-621-205-16-9 0-14 170-54 1116-261 2373-208 3858 164 152 38 277 68 278 67 1-2-356-342-647-615l-99-94-118 21c-64 11-173 28-242 36-172 22-654 31-850 16-768-59-1556-304-2340-729l-85-46 35-8c56-12 297-46 405-58 167-18 554-24 740-11 659 46 1378 228 2140 542l120 49-135-132c-659-649-632-624-684-631-27-4-75-7-106-7-89 0-347-28-508-55-602-102-1209-337-1937-748-180-102-565-336-565-343 0-3 8-3 18 0 9 3 204 42 432 86 1002 195 1382 305 1865 539 255 124 471 252 710 421 58 41 57 40-35-51-52-52-149-139-215-194-153-128-517-490-666-665-424-495-784-1036-1096-1650-117-231-183-370-176-370 9 0 188 145 334 271 851 734 1573 1658 2062 2639 102 205 102 205 181 275 213 188 319 278 301 254-11-15-56-73-101-130-485-620-897-1453-1144-2314-71-247-177-691-167-701 4-4 189 233 312 400 507 688 910 1446 1166 2194 58 169 164 532 205 705l28 117 275 238c151 130 328 283 392 340 107 92 150 124 121 89-29-34-299-534-421-777-421-843-694-1623-840-2405-36-192-84-525-78-532 7-7 293 424 400 605 598 1002 978 2052 1117 3084 12 84 23 167 26 185 4 27 49 69 322 300 174 148 414 349 532 448 118 98 223 185 233 194 10 8-14-52-53-135-710-1487-1087-2710-1220-3949-9-92-40-456-40-480 0-14 53 75 185 310 778 1391 1233 2845 1335 4270 6 83 13 155 15 161 4 14 905 751 905 741 0-3-30-69-66-148s-114-254-171-389c-601-1399-911-2633-968-3850-6-120-5-133 8-115 30 40 232 416 336 625 634 1273 1016 2661 1077 3921l7 137 220 173c308 242 770 599 774 596 1-2-38-102-86-222-709-1765-1107-3385-1176-4790-3-66-8-131-11-145-10-47 12-7 114 205 659 1377 1094 2769 1287 4115 43 306 78 646 91 884l7 129 231 172c301 224 579 426 582 422 1-1-36-122-82-267-582-1813-893-3317-953-4600-15-321-20-556-11-540 4 8 43 107 85 220 611 1623 983 3171 1099 4570 19 220 36 541 36 661v86l228 160c322 228 595 414 599 410 2-2-35-161-81-353-352-1459-546-2627-621-3734-31-464-41-1256-18-1430l6-45 19 60c10 33 56 191 103 350 378 1306 624 2621 710 3790 28 382 35 605 35 1040v430l98 65c426 282 852 553 852 541 0-5-20-94-46-197-390-1618-602-2938-674-4199-17-304-23-883-11-1171 13-334 33-644 40-644 12 0 186 623 291 1040 300 1196 466 2247 542 3435 20 313 17 1290-5 1584-10 128-17 235-15 236 30 27 309 185 326 185 13 0 20 4 17 10-3 5 11 20 32 33 96 60 424 249 427 246 2-2-18-116-45-254-177-895-307-1800-369-2560-59-738-65-1529-15-2150 23-288 48-516 55-508 10 11 129 501 194 798 210 959 329 1799 388 2735 17 273 17 1244 0 1485-10 151-36 457-45 530-2 16 22 34 113 86 112 64 540 299 544 299 2 0-6-44-16-97-105-543-192-1223-229-1793-16-241-16-918 0-1130 26-348 89-795 147-1050l18-75 28 110c140 550 247 1167 298 1720 42 467 42 1105 0 1545-23 234-65 518-109 731-11 52-16 98-11 103 21 22 976 501 1305 655 1116 524 2339 1020 3820 1551 182 65 385 137 453 161 67 23 121 43 120 45-5 4-522-105-783-165-1658-385-3284-975-4847-1757-103-52-190-94-192-94s-23 34-46 77c-57 104-241 375-342 504-538 690-1282 1311-1953 1630-160 76-195 90-195 78z" transform="matrix(.1 0 0 -.1 0 1332)" fill="#09630B" stroke="none" stroke-width="2" vector-effect="non-scaling-stroke"/>
</svg>
