<?xml version="1.0" standalone="no"?>
<svg xmlns="http://www.w3.org/2000/svg" height="1920pt" preserveAspectRatio="xMidYMid meet" viewBox="0 0 1114 1920" width="1114pt">
  <path d="m6736 19062c-153-366-232-560-306-757-86-229-280-807-320-955-13-47-26-88-29-92-4-4-5 89-2 207 4 258-12 691-39 1025-31 382-16 367-122 124-194-449-296-764-377-1164-149-735-153-1574-13-2446 16-102 16-113 1-179s-17-68-22-35c-3 19-20 195-37 390-50 565-141 1350-231 1985-67 478-220 1469-229 1490-7 15-9 9-9-25-1-56-74-1075-101-1410-65-809-84-1199-79-1669 3-222 1-335-4-301-124 783-246 1414-441 2280-110 488-96 502-126-130-54-1114-55-1970-5-2780 84-1336 315-2454 684-3299 36-84 41-103 41-170 0-76-1-76-19-52-30 39-145 258-204 387-271 595-386 1118-512 2319-107 1024-152 1384-214 1721-62 335-140 631-226 851-48 123-236 526-242 519-5-4-28-339-45-646-16-307-16-1289 0-1560 7-113 19-288 28-390 132-1635 556-2928 1276-3887l99-133-8-127-8-128-116 175c-208 312-380 628-542 995-197 448-370 976-443 1355-213 1108-450 2012-875 3340l-104 324-9-374c-14-574 9-1157 64-1675 52-474 148-1007 254-1410 19-71 33-131 32-132-1-2-30 73-64 166-195 535-427 1002-673 1354-75 107-350 460-354 455-5-6 15-360 30-548 90-1113 405-2249 910-3278 472-961 1054-1756 1816-2480l86-82 7-151c4-83 5-153 3-155-6-6-218 149-327 238-446 364-780 819-1174 1598-227 448-398 838-751 1705-483 1189-661 1582-939 2075-64 113-116 208-116 213 0 4-3 7-8 7-10 0 41-654 68-874 214-1737 914-3296 2068-4601 158-178 535-552 722-716 135-119 425-357 489-401 20-14 23-33 44-257 12-132 21-241 19-241-4 0-245 194-322 259-355 304-771 727-1071 1091-541 658-893 1194-1864 2845-279 474-450 757-750 1248-43 70-80 126-82 124-3-4 76-541 108-732 191-1123 601-2134 1212-2987 238-331 462-593 782-914 517-517 1079-962 1842-1456l228-147 20-151c12-82 19-150 17-150-11 0-284 120-417 184-396 190-744 411-1078 683-73 59-238 213-368 343-333 332-529 573-839 1030-366 538-636 877-960 1201-242 242-415 383-660 537-106 66-410 227-410 217 0-17 85-297 122-402 203-581 632-1244 1241-1923 187-208 590-607 817-809 605-537 1245-1003 1900-1382 80-46 284-154 455-239l310-156 16-100c9-54 15-101 12-104-7-7-293 92-508 177-220 86-549 246-750 363-469 275-1061 723-1484 1125-422 401-800 673-1344 969-95 51-356 187-582 301l-409 209 69-90c456-587 643-803 1014-1174 454-454 879-802 1411-1157 695-463 1524-884 2510-1273 102-40 190-79 196-86 10-13 49-202 43-209-6-5-421 119-624 187-718 239-1343 547-2002 987-264 176-498 350-851 634-295 237-486 378-680 500-231 146-507 286-734 371-87 32-485 156-503 156-3 0 42-57 101-127 436-516 820-901 1262-1266 1076-886 2452-1577 4019-2018l151-42 16-61c8-33 14-62 13-63-2-1-62 11-135 27-623 137-1576 461-2117 719-218 104-1068 600-1330 776-66 45-277 195-468 334-627 455-833 586-1222 776-137 67-262 127-277 133l-26 11 20-47c64-149 219-445 292-559 599-938 1649-1641 3206-2148 569-185 1388-381 2040-490 52-8 105-18 118-20 24-6 36-29 48-91l7-37-144 6c-798 36-1870 357-2979 893-354 171-512 258-780 428-596 379-1132 692-1742 1015l-117 62 58-128c119-263 209-420 346-609 717-982 2051-1673 3784-1959 488-80 1108-135 1534-135h147l10-26c17-43 13-54-17-49-16 3-235 19-488 35-761 50-1108 82-1455 136-847 131-1557 382-2325 822-385 221-674 415-1215 815-85 63-156 114-158 112-5-5 243-467 305-570 804-1322 2373-1934 4623-1805 284 17 796 63 841 76 13 3 30-40 89-233 81-264 305-932 403-1203 62-171 65-175 102-193 61-30 173-49 237-42 125 15 244 106 309 237l31 64-96 243c-153 384-446 1186-446 1220 0 4 46 11 103 15 243 16 629 62 907 107 1527 249 2511 818 2945 1704 130 266 188 470 244 867 33 233 39 283 28 267-48-72-352-466-423-549-776-903-1931-1525-3424-1844-228-49-509-98-524-93-12 5-41 85-33 93 2 3 125 29 273 59 1397 281 2398 684 3110 1253 142 113 369 339 474 472 230 289 393 616 480 960 28 109 115 609 107 616-2 2-64-83-137-189-74-105-168-237-209-291-733-974-2034-1742-3821-2259-332-96-422-119-430-110s-70 224-70 242c0 6 16 11 35 11 54 0 385 47 561 79 1156 213 2172 668 2909 1303 145 126 388 376 498 513 155 193 340 487 422 670 46 103 215 508 212 510-1 1-105-90-232-202-739-655-1312-1061-1953-1382-147-74-426-201-439-201-5 0 66 38 157 84 907 458 1682 1153 2335 2095 93 135 405 624 401 629-7 6-556-353-816-533-149-103-446-323-690-510-126-97-120-88 47 64 346 314 680 768 896 1220 70 146 206 464 201 470-4 5-398-222-547-316-225-140-310-206-712-548-298-253-479-394-880-681-530-379-1115-755-1475-946-47-25-120-64-162-87-98-52-1166-497-1173-489-1 2-5 12-9 23-5 18 20 31 227 124 1046 471 1791 865 2402 1272 989 658 1653 1367 2092 2234 80 157 235 506 229 513-7 7-298-113-397-164-287-147-474-302-1064-884-495-489-756-725-1149-1039-646-516-1322-953-1988-1287-196-98-449-216-454-212-3 5-65 371-62 373 2 1 62 25 133 54 823 335 1630 786 2285 1277 347 260 563 447 850 734 641 640 1097 1317 1418 2105 56 137 276 784 269 791-3 3-458-481-658-702-250-274-469-526-844-969-489-578-601-703-859-960-455-454-919-800-1606-1197-382-221-1054-577-1066-565-10 10-35 260-27 267 4 4 105 58 223 120 1614 845 2754 1694 3458 2573 390 488 648 1008 746 1504 49 245 66 509 47 718-13 148-64 525-71 525-3-1-39-76-80-168-309-692-652-1252-1145-1867-676-844-1584-1690-2680-2496-221-163-543-389-553-389-9 0-46 451-41 490 3 20 46 50 229 163 1695 1043 2641 1787 3268 2570 447 559 724 1157 846 1827 22 123 66 468 66 523 0 17-51-29-216-193-118-118-286-291-372-385-86-93-176-190-199-215l-43-45 54 105c213 410 338 835 377 1273 13 144 7 456-10 597-13 103-104 570-111 570-3 0-32-67-64-148-286-711-571-1268-1019-1987-207-331-536-819-693-1026-463-611-1155-1243-2036-1862l-138-97v44 43l162 139c858 735 1592 1497 2108 2189 305 410 520 758 721 1170 296 607 456 1170 509 1790 14 160 14 580 1 735-17 194-96 810-103 810-5 0-8-8-8-19 0-42-152-782-200-973-171-680-379-1243-695-1883-551-1112-1330-2156-2342-3139l-143-139 1 49c0 27 4 115 8 196l7 147 265 259c1377 1350 2303 2672 2693 3845 238 717 276 1357 113 1915-28 95-160 452-167 452-3 0-31-115-63-256-297-1306-881-2663-1764-4103-135-220-494-760-660-991-169-237-373-510-380-510-3 0-3 24 0 53 5 49 23 80 220 378 1169 1770 2026 3580 2452 5179 41 154 176 732 172 736-3 4-385-476-493-621-178-238-452-637-599-875-73-117-86-133-47-55 104 210 209 496 266 726 78 314 101 530 93 873-9 358-39 540-171 1021-62 226-75 264-80 235-3-19-22-152-41-295-95-691-219-1140-497-1799-77-182-117-262-83-166 70 198 174 618 219 885 76 456 87 924 30 1315-15 102-91 500-96 506-2 1-25-50-52-114zm-530-4943c-152-323-360-811-502-1178-46-119-84-210-84-203 0 20 46 318 86 562l36 214 105 131c97 120 328 454 383 552 43 77 31 38-24-78zm-1085-746 72-292-27-178c-14-98-26-187-26-197 0-11-2-17-5-15-2 3-18 147-35 320s-40 395-50 494c-11 99-22 203-24 230l-5 50 14-60c8-33 47-191 86-352zm-1613-1793c85-215 289-639 413-861 243-437 550-889 852-1256l117-142v-171c0-96-4-170-9-170-11 0-194 203-284 315-343 428-634 982-904 1720-58 158-223 635-223 643 0 13 10-9 38-78zm4266-1202c-27-45-275-311-488-523-320-319-552-521-961-835-322-246-922-676-932-666-3 2-7 83-10 178l-6 174 154 89c798 460 1515 958 2079 1445 74 64 141 124 149 133 16 20 25 23 15 5zm801-4937c-15-14-324-189-540-306-755-408-1453-688-2027-814l-86-19-16 71c-9 38-15 71-14 72 2 1 100 30 218 64 1007 291 1740 562 2285 845 190 99 194 101 180 87zm-1845-1582c-381-134-366-129-518-189-73-28-134-50-136-49-5 8-36 152-33 155 1 2 77 14 167 28 270 41 754 137 769 152 2 2 11 4 20 4 9-1-112-46-269-101z" transform="matrix(.1 0 0 -.1 0 1920)" fill="#09630B" stroke="none" stroke-width="2" vector-effect="non-scaling-stroke"/>
</svg>
