<?xml version="1.0" standalone="no"?>
<svg xmlns="http://www.w3.org/2000/svg" height="1920pt" preserveAspectRatio="xMidYMid meet" viewBox="0 0 1172 1920" width="1172pt">
  <path d="m5455 18976c-142-148-326-250-851-475-503-214-702-326-854-480-137-138-188-260-177-421 20-276 130-692 272-1029 172-407 336-697 724-1276 218-326 297-457 285-476-7-12-60 7-117 42-192 117-450 397-672 729-390 584-627 1243-699 1948-9 84-16 185-16 225 0 153-15 157-168 40-578-437-1088-905-1288-1183-119-164-154-252-154-386 0-423 376-1116 882-1626 198-199 387-359 1028-868 545-433 711-572 861-720 110-109 177-199 165-219-17-28-224 63-441 194-693 416-1512 1116-2021 1725-225 270-408 543-531 795-62 128-138 333-157 427-4 16-15 30-28 34-18 5-29-1-56-32-163-187-422-597-613-969-247-482-371-866-373-1160-1-144 11-207 55-300 127-266 637-686 1434-1181 495-307 1103-644 1485-824 378-177 542-273 656-385 98-96 83-123-55-104-150 21-292 79-701 285-776 391-1694 948-2259 1369-393 292-627 517-710 677-28 54-58 71-78 46-13-16-95-597-122-863-46-447-53-951-16-1235 75-584 274-962 595-1129 182-95 601-222 1715-521 1124-301 1498-417 1736-541 139-73 150-109 43-142-300-91-1035-85-1728 14-1076 153-1840 479-2161 922-41 57-54 67-75 65-24-3-25-6-23-64 5-187 123-687 248-1052 447-1304 1272-2505 2156-3139 296-212 632-380 935-468 490-142 989-122 1483 61 782 290 1234 915 1346 1864 19 163 30 618 18 787-4 67-5 119-2 115s13-43 22-87 48-231 86-415c382-1830 498-3039 395-4140-106-1146-491-2183-1140-3077-62-85-87-133-70-133 4 0 366-76 403-85 29-7 119 82 219 217 346 465 649 1286 872 2363 129 619 169 1078 151 1731-8 322-15 426-45 734-61 633-193 1383-400 2280-46 201-87 374-90 385s22-29 56-90c543-966 1025-1408 1583-1451 105-8 221 7 424 56 1538 371 2441 1478 2652 3250 39 327 46 456 45 890-1 457-15 701-69 1145-43 356-143 961-169 1015-21 45-45 31-108-60-203-298-593-680-1034-1012-893-673-1943-1174-2224-1062-45 18-60 39-60 80 0 62 193 209 530 406 80 47 287 165 460 263 977 553 1391 834 1730 1174 243 244 357 435 396 663 25 147 30 483 10 658-69 596-294 1181-660 1720-145 213-396 500-438 500-26 0-34-29-42-143-57-843-695-2088-1542-3009-298-323-596-552-738-566-85-8-92 30-31 164 65 142 194 334 600 889 133 182 305 421 383 532 546 777 845 1348 958 1830 26 107 28 136 29 308 0 153-4 204-18 260-29 108-98 240-178 340-99 123-361 382-492 485-125 99-327 240-343 240-6 0-17-6-24-14-9-12-6-36 14-116 58-230 41-514-54-890-184-730-695-1733-1159-2273-141-165-293-273-347-249-35 17-46 54-32 110 29 116 108 254 410 715 115 175 256 397 315 495 537 892 674 1552 437 2104-74 174-189 332-360 498-266 258-546 420-1154 670-326 134-553 242-675 321-100 66-261 225-307 304-21 37-42 61-54 62-12 2-46-25-99-81z" transform="matrix(.1 0 0 -.1 0 1920)" fill="#09630B" stroke="none" stroke-width="2" vector-effect="non-scaling-stroke"/>
</svg>
